<?xml version="1.0" encoding="UTF-8" standalone="no"?>
<svg
   xmlns:dc="http://purl.org/dc/elements/1.1/"
   xmlns:cc="http://creativecommons.org/ns#"
   xmlns:rdf="http://www.w3.org/1999/02/22-rdf-syntax-ns#"
   xmlns:svg="http://www.w3.org/2000/svg"
   xmlns="http://www.w3.org/2000/svg"
   viewBox="0 0 816 1056"
   height="1056"
   width="816"
   xml:space="preserve"
   id="svg2"
   version="1.1"><metadata
     id="metadata8"><rdf:RDF><cc:Work
         rdf:about=""><dc:format>image/svg+xml</dc:format><dc:type
           rdf:resource="http://purl.org/dc/dcmitype/StillImage" /></cc:Work></rdf:RDF></metadata><defs
     id="defs6"><clipPath
       id="clipPath18"
       clipPathUnits="userSpaceOnUse"><path
         id="path16"
         d="M 0,792 H 612 V 0 H 0 Z" /></clipPath></defs><g
     transform="matrix(1.3333333,0,0,-1.3333333,0,1056)"
     id="g10"><g
       id="g12"><g
         clip-path="url(#clipPath18)"
         id="g14"><g
           transform="translate(427.9678,591.79)"
           id="g20"><path
             id="path22"
             style="fill:#373535;fill-opacity:1;fill-rule:nonzero;stroke:none"
             d="M 0,0 C 14.198,-8.75 30.755,-20.541 47.694,-36.229 61.824,-49.315 73.15,-62.271 82.09,-73.834 l 12.841,8.254 C 85.212,-53.013 72.973,-38.978 57.784,-24.765 40.25,-8.356 23.125,4.228 8.255,13.758 5.504,9.172 2.752,4.586 0,0" /></g><g
           transform="translate(520.834,501.6753)"
           id="g24"><path
             id="path26"
             style="fill:#373535;fill-opacity:1;fill-rule:nonzero;stroke:none"
             d="M 0,0 C 4.357,2.522 8.714,5.044 13.07,7.567 15.479,2.809 17.886,-1.949 20.293,-6.707 16.09,-9.045 11.886,-11.382 7.682,-13.72 Z" /></g><g
           transform="translate(528.6309,375.2168)"
           id="g28"><path
             id="path30"
             style="fill:none;stroke:#373535;stroke-width:27;stroke-linecap:butt;stroke-linejoin:miter;stroke-miterlimit:10;stroke-dasharray:none;stroke-opacity:1"
             d="m 0,0 c 0,-122.903 -98.555,-222.535 -220.128,-222.535 -121.573,0 -220.127,99.632 -220.127,222.535 0,122.902 98.554,222.535 220.127,222.535 C -98.555,222.535 0,122.902 0,0 Z" /></g><g
           transform="translate(329.8281,340.4775)"
           id="g32"><path
             id="path34"
             style="fill:#ffffff;fill-opacity:1;fill-rule:nonzero;stroke:none"
             d="m 0,0 h -4.472 -4.47 4.47 z" /></g><g
           transform="translate(325.3564,340.4775)"
           id="g36"><path
             id="path38"
             style="fill:#ffffff;fill-opacity:1;fill-rule:nonzero;stroke:none"
             d="M 0,0 H 2.236 4.472 2.236 Z" /></g><g
           transform="translate(116.5796,386.7959)"
           id="g40"><path
             id="path42"
             style="fill:#373535;fill-opacity:1;fill-rule:nonzero;stroke:none"
             d="m 0,0 c 33.762,16.683 94.476,41.162 173.809,43.796 97.025,3.223 170.622,-27.933 205.682,-45.63 -0.765,-16.892 -1.53,-33.783 -2.293,-50.675 -23.72,5.843 -55.449,11.025 -88.51,8.254 -12.453,-1.043 -23.262,-3.061 -34.395,-9.4 -15.546,-8.854 -23.589,-21.499 -27.746,-28.204 -11.308,-18.248 -13.142,-34.942 -16.28,-61.453 -2.994,-25.302 -2.438,-46.467 -1.375,-60.994 h -37.147 c -3.588,26.079 -4.353,47.175 -4.356,61.911 -0.004,14.498 0.73,23.578 -2.752,36.458 -1.924,7.118 -6.582,23.583 -21.095,38.294 -17.03,17.26 -37.194,21.535 -45.402,23.16 -3.411,0.674 -12.893,2.352 -45.401,-0.918 C 32.798,-47.407 16.193,-50.068 4.127,-52.28 2.751,-34.854 1.376,-17.427 0,0" /></g><g
           transform="translate(340.376,372.9238)"
           id="g44"><path
             id="path46"
             style="fill:none;stroke:#ffffff;stroke-width:18;stroke-linecap:butt;stroke-linejoin:miter;stroke-miterlimit:10;stroke-dasharray:none;stroke-opacity:1"
             d="m 0,0 c 0,-17.92 -15.245,-32.446 -34.051,-32.446 -18.806,0 -34.051,14.526 -34.051,32.446 0,17.919 15.245,32.446 34.051,32.446 C -15.245,32.446 0,17.919 0,0 Z" /></g><path
           id="path48"
           style="fill:#ffffff;fill-opacity:1;fill-rule:nonzero;stroke:none"
           d="m 247.968,365.815 h -26.14 v 16.51 h 26.14 z" /><path
           id="path50"
           style="fill:#ffffff;fill-opacity:1;fill-rule:nonzero;stroke:none"
           d="m 388.758,364.096 h -25.911 v 17.427 h 25.911 z" /><g
           transform="translate(89.6753,220.4775)"
           id="g52"><path
             id="path54"
             style="fill:#373535;fill-opacity:1;fill-rule:nonzero;stroke:none"
             d="M 0,0 C 9.035,-13.062 21.803,-29.003 39.287,-44.942 56.686,-60.806 73.65,-72.014 87.439,-79.796 l 7.338,12.993 C 81.73,-59.546 65.783,-49.168 49.375,-34.548 32.765,-19.747 20.518,-4.907 11.771,7.338 7.847,4.892 3.923,2.446 0,0" /></g><g
           transform="translate(89.6753,220.4775)"
           id="g56"><path
             id="path58"
             style="fill:none;stroke:#ffffff;stroke-width:1;stroke-linecap:butt;stroke-linejoin:miter;stroke-miterlimit:10;stroke-dasharray:none;stroke-opacity:1"
             d="M 0,0 C 9.035,-13.062 21.803,-29.003 39.287,-44.942 56.686,-60.806 73.65,-72.014 87.439,-79.796 l 7.338,12.993 C 81.73,-59.546 65.783,-49.168 49.375,-34.548 32.765,-19.747 20.518,-4.907 11.771,7.338 7.847,4.892 3.923,2.446 0,0 Z" /></g><g
           transform="translate(70.8726,251.6621)"
           id="g60"><path
             id="path62"
             style="fill:#373535;fill-opacity:1;fill-rule:nonzero;stroke:none"
             d="m 0,0 c 2.497,-5.197 4.994,-10.395 7.491,-15.592 4.28,2.751 8.56,5.503 12.84,8.255 L 12.535,6.573 C 8.357,4.383 4.178,2.191 0,0" /></g><g
           transform="translate(70.8726,251.6621)"
           id="g64"><path
             id="path66"
             style="fill:none;stroke:#ffffff;stroke-width:1;stroke-linecap:butt;stroke-linejoin:miter;stroke-miterlimit:10;stroke-dasharray:none;stroke-opacity:1"
             d="m 0,0 c 2.497,-5.197 4.994,-10.395 7.491,-15.592 4.28,2.751 8.56,5.503 12.84,8.255 L 12.535,6.573 C 8.357,4.383 4.178,2.191 0,0 Z" /></g></g></g></g></svg>